<?xml version="1.0" encoding="utf-8"?>
<!-- Generator: Adobe Illustrator 17.0.0, SVG Export Plug-In . SVG Version: 6.00 Build 0)  -->
<!DOCTYPE svg PUBLIC "-//W3C//DTD SVG 1.1//EN" "http://www.w3.org/Graphics/SVG/1.1/DTD/svg11.dtd">
<svg version="1.1" id="Layer_1" xmlns="http://www.w3.org/2000/svg" xmlns:xlink="http://www.w3.org/1999/xlink" x="0px" y="0px"
	 width="360px" height="360px" viewBox="0 0 360 360" enable-background="new 0 0 360 360" xml:space="preserve">
<path fill="#6F439A" d="M180.043,0C81.088,0,0.878,80.21,0.878,179.165c0,98.944,80.21,179.165,179.165,179.165
	s179.165-80.221,179.165-179.165C359.208,80.21,278.998,0,180.043,0z M146.102,262.69c0,2.564-1.377,4.087-3.348,4.087
	c-0.694,0-1.467-0.19-2.284-0.594l-58.475-29.237c-2.072-1.03-3.762-3.774-3.762-6.08V95.036c0-0.84,0.235-1.512,0.616-1.982
	c0.403-0.482,0.963-0.739,1.624-0.739c0.47,0,0.985,0.134,1.523,0.403l3.762,1.881l59.516,29.753
	c0.515,0.258,0.84,0.784,0.829,1.355V262.69z M152.105,204.136v-69.617l61.879,100.545L152.105,204.136z M173.134,157.217
	l39.752-64.6c0.414-0.683,1.198-1.075,1.982-1.075c0.022,0,0.045,0.011,0.067,0.011c0.314,0.011,0.638,0.078,0.929,0.224
	l64.499,32.25c0.806,0.403,1.086,1.4,0.627,2.15l-63.48,103.154L173.134,157.217z M281.854,262.656c0,3.46-2.542,5.028-5.644,3.483
	l-56.818-28.409l62.461-101.497V262.656z"/>
</svg>
