<?xml version="1.0" encoding="utf-8"?>
<!-- Generator: Adobe Illustrator 17.0.0, SVG Export Plug-In . SVG Version: 6.00 Build 0)  -->
<!DOCTYPE svg PUBLIC "-//W3C//DTD SVG 1.1//EN" "http://www.w3.org/Graphics/SVG/1.1/DTD/svg11.dtd">
<svg version="1.1" id="Layer_1" xmlns="http://www.w3.org/2000/svg" xmlns:xlink="http://www.w3.org/1999/xlink" x="0px" y="0px"
	 width="360px" height="360px" viewBox="0 0 360 360" enable-background="new 0 0 360 360" xml:space="preserve">
<circle fill="#6F439A" cx="180" cy="178.685" r="178.685"/>
<g>
	<path fill="#FFFFFF" d="M78.208,178.685c0-18.458,4.547-35.491,13.64-51.1c9.093-15.608,21.444-27.959,37.052-37.052
		c15.608-9.093,32.641-13.64,51.1-13.64c18.458,0,35.492,4.547,51.1,13.64c15.608,9.093,27.959,21.444,37.052,37.052
		c9.093,15.608,13.64,32.641,13.64,51.1s-4.547,35.491-13.64,51.1c-9.093,15.608-21.444,27.959-37.052,37.052
		c-15.608,9.093-32.641,13.64-51.1,13.64c-18.458,0-35.491-4.547-51.1-13.64c-15.608-9.093-27.959-21.444-37.052-37.052
		C82.755,214.177,78.208,197.144,78.208,178.685z M95.106,178.685c0,21.173,7.125,39.835,21.376,55.986
		c6.515-12.758,16.83-24.905,30.945-36.441c14.115-11.536,27.891-18.797,41.327-21.783c-2.036-4.75-4.004-9.025-5.904-12.826
		c-23.344,7.465-48.589,11.197-75.733,11.197c-5.293,0-9.229-0.068-11.808-0.204c0,0.543-0.034,1.221-0.102,2.036
		C95.14,177.464,95.106,178.142,95.106,178.685z M97.752,157.716c2.986,0.271,7.397,0.407,13.233,0.407
		c22.666,0,44.178-3.054,64.536-9.161c-10.315-18.323-21.648-33.591-33.998-45.806c-10.722,5.429-19.917,12.962-27.586,22.598
		C106.269,135.39,100.874,146.044,97.752,157.716z M128.086,245.664c15.337,11.944,32.641,17.915,51.914,17.915
		c10.044,0,20.019-1.9,29.927-5.7c-2.714-23.209-8.008-45.671-15.88-67.386c-12.486,2.714-25.075,9.568-37.765,20.562
		C143.592,222.049,134.194,233.585,128.086,245.664z M159.234,96.641c11.944,12.351,23.005,27.755,33.184,46.214
		c18.458-7.736,32.37-17.576,41.735-29.52C218.41,100.306,200.358,93.791,180,93.791C173.078,93.791,166.156,94.741,159.234,96.641z
		 M199.748,157.309c2.036,4.343,4.343,9.84,6.922,16.49c10.044-0.95,20.969-1.425,32.777-1.425c8.415,0,16.762,0.204,25.041,0.611
		c-1.086-18.458-7.736-34.881-19.951-49.267C235.714,136.883,220.785,148.08,199.748,157.309z M211.759,188.05
		c6.922,20.087,11.604,40.717,14.047,61.889c10.722-6.922,19.476-15.812,26.262-26.669c6.786-10.858,10.858-22.598,12.215-35.22
		c-9.908-0.679-18.933-1.018-27.077-1.018C229.742,187.032,221.26,187.372,211.759,188.05z"/>
</g>
</svg>
