<?xml version="1.0" encoding="utf-8"?>
<!-- Generator: Adobe Illustrator 17.0.0, SVG Export Plug-In . SVG Version: 6.00 Build 0)  -->
<!DOCTYPE svg PUBLIC "-//W3C//DTD SVG 1.1//EN" "http://www.w3.org/Graphics/SVG/1.1/DTD/svg11.dtd">
<svg version="1.1" id="Layer_1" xmlns="http://www.w3.org/2000/svg" xmlns:xlink="http://www.w3.org/1999/xlink" x="0px" y="0px"
	 width="360px" height="360px" viewBox="0 0 360 360" enable-background="new 0 0 360 360" xml:space="preserve">
<path fill="#6F439A" d="M180,0.084C81.019,0.084,0.788,80.125,0.788,178.871c0,98.735,80.231,178.787,179.212,178.787
	s179.212-80.052,179.212-178.787C359.212,80.125,278.981,0.084,180,0.084z M281.895,122.368c-0.862,1.43-5.276,6.459-9.98,11.062
	c-7.975,7.9-8.401,8.761-8.401,15.376c0,10.202-4.839,31.478-9.689,43.11c-8.983,21.857-28.215,44.429-47.458,55.781
	c-27.072,15.946-63.128,19.979-93.482,10.638c-10.103-3.173-27.498-11.219-27.498-12.649c0-0.436,5.276-1.006,11.694-1.151
	c13.396-0.268,26.792-4,38.195-10.627l7.695-4.604l-8.837-3.017c-12.545-4.313-23.802-14.236-26.647-23.578
	c-0.862-3.028-0.571-3.173,7.404-3.173l8.277-0.123l-6.989-3.307c-8.266-4.179-15.815-11.208-19.523-18.404
	c-2.711-5.185-6.127-18.259-5.13-19.264c0.28-0.436,3.282,0.425,6.698,1.576c9.823,3.587,11.111,2.727,5.41-3.308
	c-10.686-10.928-13.967-27.176-8.837-42.551l2.408-6.894l9.409,9.342c19.243,18.828,41.902,30.036,67.832,33.344l7.124,0.86
	l-0.426-7.04c-1.277-18.247,9.98-34.919,27.789-41.389c6.564-2.302,17.675-2.592,24.955-0.581c2.856,0.86,8.255,3.743,12.108,6.325
	l6.978,4.76l7.695-2.447c4.279-1.285,9.98-3.442,12.545-4.883c2.419-1.285,4.559-2,4.559-1.576c0,2.436-5.276,10.772-9.689,15.376
	c-5.992,6.47-4.279,7.04,7.829,2.727C283.172,119.631,283.328,119.631,281.895,122.368z"/>
</svg>
